<svg width="302" height="146" xmlns="http://www.w3.org/2000/svg">
 <!-- Created with Method Draw - http://github.com/duopixel/Method-Draw/ -->
 <g>
  <title>background</title>
  <rect fill="none" id="canvas_background" height="148" width="304" y="-1" x="-1"/>
  <g display="none" overflow="visible" y="0" x="0" height="100%" width="100%" id="canvasGrid">
   <rect fill="url(#gridpattern)" stroke-width="0" y="0" x="0" height="100%" width="100%"/>
  </g>
 </g>
 <g>
  <title>Layer 1</title>
  <text font-style="italic" font-weight="bold" xml:space="preserve" text-anchor="start" font-family="'Palatino Linotype', 'Book Antiqua', Palatino, serif" font-size="84" id="svg_1" y="99" x="86.916664" stroke-width="2" stroke="#ffffff" fill="#000000">TCM</text>
  <path id="svg_4" d="m71.631683,35.424744l9.167282,0l2.832718,-9.168106l2.833008,9.168106l9.166992,0l-7.416397,5.666138l2.832703,9.168091l-7.416306,-5.666245l-7.416336,5.666245l2.832993,-9.168091l-7.416656,-5.666138l0,0z" stroke-width="1.5" stroke="#fff" fill="#000"/>
  <path id="svg_5" d="m29.631027,32.772125l14.514862,0l4.485123,-14.516174l4.485611,14.516174l14.514404,0l-11.742645,8.971375l4.485123,14.516159l-11.742493,-8.971558l-11.742523,8.971558l4.48558,-14.516159l-11.743042,-8.971375l0,0z" stroke-width="1.5" stroke="#fff" fill="#000"/>
  <path id="svg_7" d="m36.631027,103.772125l14.514862,0l4.485123,-14.516174l4.485611,14.516174l14.514404,0l-11.742645,8.971375l4.485123,14.516159l-11.742493,-8.971558l-11.742523,8.971558l4.48558,-14.516159l-11.743042,-8.971375l0,0z" stroke-width="1.5" stroke="#fff" fill="#000"/>
  <path id="svg_8" d="m75.631546,103.334518l10.313187,0l3.186798,-11.078125l3.187149,11.078125l10.312866,0l-8.34346,6.846588l3.186798,11.07811l-8.343353,-6.84671l-8.343369,6.84671l3.187119,-11.07811l-8.343735,-6.846588l0,0z" stroke-width="1.5" stroke="#fff" fill="#000"/>
  <path id="svg_9" d="m91.444824,76.6315l7.311005,-3.715393c-0.143143,-1.376236 -0.421463,-2.711838 -0.76915,-4.024033l-8.121414,-1.080444c-0.702881,-1.627457 -1.630951,-3.136765 -2.722031,-4.521439l3.09549,-7.315613c-1.018158,-0.953583 -2.117035,-1.8237 -3.274582,-2.623123l-6.895737,4.159317c-1.617798,-0.817322 -3.359741,-1.437988 -5.189789,-1.837021l-2.491547,-7.417938c-0.70639,-0.051254 -1.413391,-0.105423 -2.133743,-0.105423s-1.425888,0.053345 -2.135147,0.105423l-2.467133,7.352951c-1.878265,0.385757 -3.658478,1.013382 -5.318039,1.840378l-6.789139,-4.097687c-1.155426,0.799423 -2.254669,1.66954 -3.27272,2.623123l3.010559,7.113678c-1.173996,1.444244 -2.155243,3.039291 -2.893173,4.757111l-7.865646,1.045059c-0.345566,1.310516 -0.625443,2.645325 -0.767044,4.024857l7.059021,3.588287c0.080002,1.888535 0.405746,3.719727 0.982849,5.444092l-5.324738,5.656738c0.619217,1.234894 1.309067,2.431351 2.106583,3.554474l7.84024,-1.617172c1.28511,1.34436 2.75,2.522141 4.365707,3.495499l-0.296951,7.707413c1.287567,0.55838 2.62561,1.024551 4.004654,1.397781l4.958847,-6.125809c0.881058,0.108765 1.771683,0.181076 2.680191,0.181076c0.985474,0 1.947998,-0.085495 2.894974,-0.210495l4.986206,6.159348c1.38089,-0.372437 2.717117,-0.839401 4.004471,-1.397751l-0.303207,-7.844864c1.540649,-0.958847 2.93663,-2.104721 4.168076,-3.398285l8.044128,1.658203c0.797546,-1.123093 1.487503,-2.319641 2.106781,-3.554474l-5.497559,-5.842697c0.527878,-1.632339 0.822495,-3.357254 0.908707,-5.135147l0,0zm-12.151733,8.924683l-3.466309,2.168289l-2.132278,-3.147293c-1.109695,0.410263 -2.303116,0.658279 -3.562256,0.658279c-5.496979,0 -9.952316,-4.282074 -9.952316,-9.562317c0,-5.282166 4.455338,-9.562805 9.952316,-9.562805c5.497086,0 9.953552,4.28064 9.953552,9.562805c0,2.638107 -1.112991,5.02446 -2.911667,6.755371l2.118958,3.12767z" stroke-width="1.5" stroke="#fff" fill="#000"/>
  <path id="svg_6" d="m10.630554,67.591675l18.334564,0l5.665421,-18.336212l5.666031,18.336212l18.333984,0l-14.832809,11.332275l5.665421,18.336197l-14.832626,-11.332504l-14.832657,11.332504l5.665985,-18.336197l-14.833313,-11.332275l0,0z" stroke-width="1.5" stroke="#fff" fill="#000"/>
 </g>
</svg>